HIERARCHY
ROOT root
{
	OFFSET	0	13.1	24.9
	CHANNELS 6  Xposition Yposition Zposition Xrotation Yrotation Zrotation
	JOINT spine_1
	{
		OFFSET	0	9.99999	0
		CHANNELS 3  Xrotation Yrotation Zrotation
		JOINT spine_2
		{
			OFFSET	0	112	-10
			CHANNELS 3  Xrotation Yrotation Zrotation
			JOINT spine_3
			{
				OFFSET	0	206.5	19.3
				CHANNELS 3  Xrotation Yrotation Zrotation
				JOINT spine_4
				{
					OFFSET	0	110.4	14.6
					CHANNELS 3  Xrotation Yrotation Zrotation
					JOINT neck_1
					{
						OFFSET	0	71.8	-50.3
						CHANNELS 3  Xrotation Yrotation Zrotation
						JOINT neck_2
						{
							OFFSET	0	86.2	-25.8
							CHANNELS 3  Xrotation Yrotation Zrotation
							JOINT head_ee
							{
								OFFSET	0	179.8	-8.7
								CHANNELS 3  Xrotation Yrotation Zrotation
								End Site
								{
									OFFSET	1	0	0
								}
							}
						}
					}
					JOINT left_clavicle
					{
						OFFSET	-43.2	22.4	-70.8
						CHANNELS 3  Xrotation Yrotation Zrotation
						JOINT left_shoulder
						{
							OFFSET	-93.9	-5.79999	48.7
							CHANNELS 3  Xrotation Yrotation Zrotation
							JOINT left_elbow
							{
								OFFSET	-291.4	-30.8	15.2
								CHANNELS 3  Xrotation Yrotation Zrotation
								JOINT left_lowarm_twist
								{
									OFFSET	-110.7	-3.89999	13.6
									CHANNELS 3  Xrotation Yrotation Zrotation
									JOINT left_hand
									{
										OFFSET	-110.7	-3.89999	13.6
										CHANNELS 3  Xrotation Yrotation Zrotation
										JOINT left_ee
										{
											OFFSET	-80.8	-5.10001	12.1
											CHANNELS 3  Xrotation Yrotation Zrotation
											End Site
											{
												OFFSET	1	0	0
											}
										}
									}
								}
							}
						}
					}
					JOINT right_clavicle
					{
						OFFSET	43.2	22.4	-70.8
						CHANNELS 3  Xrotation Yrotation Zrotation
						JOINT right_shoulder
						{
							OFFSET	93.9	-5.79999	48.7
							CHANNELS 3  Xrotation Yrotation Zrotation
							JOINT right_elbow
							{
								OFFSET	291.4	-30.8	15.2
								CHANNELS 3  Xrotation Yrotation Zrotation
								JOINT right_lowarm_twist
								{
									OFFSET	110.7	-3.89999	13.6
									CHANNELS 3  Xrotation Yrotation Zrotation
									JOINT right_hand
									{
										OFFSET	110.7	-3.89999	13.6
										CHANNELS 3  Xrotation Yrotation Zrotation
										JOINT right_ee
										{
											OFFSET	80.8	-5.10001	12.1
											CHANNELS 3  Xrotation Yrotation Zrotation
											End Site
											{
												OFFSET	1	0	0
											}
										}
									}
								}
							}
						}
					}
				}
			}
		}
	}
	JOINT left_hip
	{
		OFFSET	-82.8	-127.5	0.300001
		CHANNELS 3  Xrotation Yrotation Zrotation
		JOINT left_knee
		{
			OFFSET	-28.2	-396.7	2.2
			CHANNELS 3  Xrotation Yrotation Zrotation
			JOINT left_ankle
			{
				OFFSET	-11.7	-411.3	35.4
				CHANNELS 3  Xrotation Yrotation Zrotation
				JOINT left_toes
				{
					OFFSET	0	-60	-88.6
					CHANNELS 3  Xrotation Yrotation Zrotation
					JOINT left_foot_ee
					{
						OFFSET	-22.5	-16.5	-42.2
						CHANNELS 3  Xrotation Yrotation Zrotation
						End Site
						{
							OFFSET	1	0	0
						}
					}
				}
			}
		}
	}
	JOINT right_hip
	{
		OFFSET	82.8	-127.5	0.300001
		CHANNELS 3  Xrotation Yrotation Zrotation
		JOINT right_knee
		{
			OFFSET	28.2	-396.7	2.2
			CHANNELS 3  Xrotation Yrotation Zrotation
			JOINT right_ankle
			{
				OFFSET	11.7	-411.3	35.4
				CHANNELS 3  Xrotation Yrotation Zrotation
				JOINT right_toes
				{
					OFFSET	0	-60	-88.6
					CHANNELS 3  Xrotation Yrotation Zrotation
					JOINT right_foot_ee
					{
						OFFSET	22.5	-16.5	-42.2
						CHANNELS 3  Xrotation Yrotation Zrotation
						End Site
						{
							OFFSET	1	0	0
						}
					}
				}
			}
		}
	}
}
MOTION
Frames: 15
Frame Time: 0.02
1372.05 701.618 -1475.22 -10.3886762447 72.3859408295 13.4725566207 0.54093 -0.531009 -2.81019 0.545255 -0.351187 -2.83825 0.564429 0.225154 -2.85101 0.553159 -0.227747 -2.8508 -5.53446 11.6692 10.36 -5.24374 13.8117 12.5443 -0.0 0.0 -0.0 9.48035 3.42689 18.4134 2.17789 -25.1472 52.4724 4.55711 -66.086 2.96519 5.54714 0.162153 -0.689734 -0.824984 -3.35922 -6.98627 -0.0 0.0 -0.0 4.00986 6.27859 -7.37809 -25.6429 3.83983 -67.8415 0.329474 9.26981 -0.026711 34.4565 0.0927489 4.33499 -1.77423 -9.63945 7.41252 0.0 0.0 0.0 -15.9793 27.1056 1.99893 1.23817 -0.052963 -0.182615 40.3573 -2.24255 -4.9267 -21.6366 0.0 0.0 -0.0 0.0 -0.0 35.3258 13.1451 -9.49986 0.285376 0.0118563 0.0421882 -10.448 21.2188 -1.79829 -31.8845 0.0 0.0 0.0 0.0 0.0 
1316.54519033 693.389 -1491.10394094 -7.91782714334 75.1589711529 11.2729374878 0.347123 -0.563882 -3.06622 0.352278 -0.367723 -3.09585 0.374523 0.270951 -3.10581 0.361133 -0.22271 -3.10964 -6.48246 11.4011 11.6341 -6.12804 12.6198 13.8292 -0.0 0.0 -0.0 7.71187 4.17286 14.9197 0.298553 -24.6499 58.0255 4.57745 -66.1802 2.98379 2.44941 0.079839 -0.302639 -0.708329 -3.91621 -6.43846 -0.0 0.0 -0.0 3.71846 3.85812 -6.94404 -24.1451 4.80122 -67.9677 0.375615 10.5406 -0.0346486 35.1587 0.121685 4.41997 -2.31179 -18.5129 6.43796 0.0 0.0 0.0 -18.2484 25.2981 0.425731 -4.28599 0.152587 0.639919 40.1909 -1.62316 -4.90617 -18.4758 0.0 0.0 -0.0 0.0 -0.0 32.915 13.4629 -10.3392 -6.21836 -0.205627 -0.931717 -0.399698 16.508 -0.0645684 -31.3218 0.0 0.0 0.0 0.0 0.0 
1316.77829688 693.389 -1491.89699943 -7.51375897287 74.3460364556 10.8541373493 0.347123 -0.563882 -3.06622 0.352278 -0.367723 -3.09585 0.374523 0.270951 -3.10581 0.361133 -0.22271 -3.10964 -6.48246 11.4011 11.6341 -6.12804 12.6198 13.8292 -0.0 0.0 -0.0 7.71187 4.17286 14.9197 0.298553 -24.6499 58.0255 4.57745 -66.1802 2.98379 2.44941 0.079839 -0.302639 -0.708329 -3.91621 -6.43846 -0.0 0.0 -0.0 3.71846 3.85812 -6.94404 -24.1451 4.80122 -67.9677 0.375615 10.5406 -0.0346486 35.1587 0.121685 4.41997 -2.31179 -18.5129 6.43796 0.0 0.0 0.0 -18.2484 25.2981 0.425731 -4.28599 0.152587 0.639919 40.1909 -1.62316 -4.90617 -18.4758 0.0 0.0 -0.0 0.0 -0.0 32.915 13.4629 -10.3392 -6.21836 -0.205627 -0.931717 -0.399698 16.508 -0.0645684 -31.3218 0.0 0.0 0.0 0.0 0.0 
1286.52093756 697.571 -1498.44610933 -3.75146923589 75.1920514257 7.07401171422 0.246632 -0.484358 -3.15485 0.252125 -0.282729 -3.17924 0.270348 0.377074 -3.16945 0.256355 -0.12795 -3.18921 -9.00256 10.5062 12.2042 -8.6266 11.2392 14.3614 -0.0 0.0 -0.0 6.60922 4.99607 12.8003 -0.13236 -24.1397 61.817 4.00764 -63.247 2.46841 1.45977 0.0491415 -0.179961 -0.784609 -4.14321 -7.05419 -0.0 0.0 -0.0 3.50214 3.19607 -6.55539 -22.4561 4.34553 -67.0255 0.437677 12.2333 -0.0469032 36.286 0.170311 4.55563 -3.17576 -25.4884 7.76201 0.0 0.0 0.0 -19.294 24.703 0.0193563 -7.73547 0.240351 1.16193 38.2236 1.66847 -4.70947 -16.9587 0.0 0.0 -0.0 0.0 -0.0 30.8055 14.0942 -10.192 -10.8996 -0.293092 -1.64453 7.57668 15.7027 1.18591 -32.2838 0.0 0.0 0.0 0.0 0.0 
1218.89597127 699.803 -1504.78488946 4.89298117552 74.6821073906 -1.83246085875 0.195812 -0.404338 -3.15431 0.201325 -0.202906 -3.17362 0.215059 0.457192 -3.14709 0.201242 -0.0453087 -3.17977 -12.5586 8.68686 13.5995 -12.0757 7.84453 15.4636 -0.0 0.0 -0.0 4.6377 8.09309 9.18109 -1.53805 -22.208 68.3434 3.06267 -56.5982 1.6493 -1.16052 -0.0423332 0.142154 -0.975264 -1.56346 -7.21601 -0.0 0.0 -0.0 3.72601 1.23749 -7.11627 -19.6923 5.83649 -65.3298 0.482493 13.4424 -0.0568613 35.7601 0.147295 4.49246 -4.28878 -28.8894 11.8934 0.0 0.0 0.0 -18.4599 23.7552 -0.26601 -20.0854 0.294615 3.05242 36.118 6.97215 -4.5073 -14.0836 0.0 0.0 -0.0 0.0 -0.0 24.5594 14.453 -11.1645 -15.1254 -0.321842 -2.29213 22.3147 14.133 3.2279 -33.2656 0.0 0.0 0.0 0.0 0.0 
1193.12177475 703.382 -1508.03535632 8.20570742949 73.0351407725 -5.2200201708 0.226539 -0.325896 -3.19846 0.232222 -0.121816 -3.2127 0.241445 0.543279 -3.16882 0.227436 0.036275 -3.2148 -14.1616 8.16672 14.4865 -13.6039 6.74979 16.2459 -0.0 0.0 -0.0 3.74217 9.5357 7.63216 -3.00154 -21.2853 70.4106 2.63654 -52.5511 1.30183 -2.08696 -0.0781918 0.255011 -1.00976 0.386217 -6.58783 -0.0 0.0 -0.0 4.06911 0.782498 -7.8115 -17.3023 6.45263 -64.1852 0.461915 12.8887 -0.0521743 35.7743 0.147906 4.49416 -4.68056 -28.8426 14.1018 0.0 0.0 0.0 -18.3563 21.7674 -0.148579 -26.9202 0.149655 4.09063 36.6507 7.8209 -4.56003 -12.9471 0.0 0.0 -0.0 0.0 -0.0 21.9139 14.6389 -11.6588 -16.1789 -0.321566 -2.45376 26.3432 12.9897 3.69595 -33.3889 0.0 0.0 0.0 0.0 0.0 
1169.38732114 710.7 -1507.45149334 10.7419567891 72.8809974337 -8.05775059093 0.150244 -0.352227 -2.9569 0.155093 -0.163443 -2.97331 0.165791 0.456942 -2.94255 0.153709 -0.0133003 -2.97776 -15.7909 6.71912 12.4244 -15.3825 5.64921 13.9528 -0.0 0.0 -0.0 4.233 11.9589 8.53668 -4.32131 -20.3078 70.8884 2.33969 -49.2051 1.07144 -3.84815 -0.151379 0.467916 -1.13594 3.91609 -5.85973 -0.0 0.0 -0.0 4.08425 0.822163 -7.83907 -14.3176 6.03184 -64.4941 0.391731 10.9821 -0.0376578 35.9249 0.154444 4.51228 -5.20007 -28.9143 16.9801 0.0 0.0 0.0 -14.7637 19.7734 -1.46093 -31.9588 -0.0359298 4.84137 32.048 11.4816 -4.12237 -13.454 0.0 0.0 -0.0 0.0 -0.0 18.6214 14.8289 -11.1724 -14.6755 -0.321054 -2.22311 26.1778 10.5216 3.62468 -34.3 0.0 0.0 0.0 0.0 0.0 
1144.35813805 716.726 -1506.05821245 11.2669974194 72.1220784398 -8.86732853963 0.186545 -0.242474 -2.7796 0.19084 -0.0651793 -2.78939 0.195813 0.513537 -2.74252 0.185325 0.074138 -2.78916 -14.9939 6.40609 12.0861 -14.6022 5.05692 13.4896 -0.0 0.0 -0.0 4.40362 12.3686 8.831 -6.60941 -19.5793 71.1428 1.97997 -44.4403 0.808891 -4.96673 -0.201253 0.601948 -1.28927 6.64985 -5.63926 -0.0 0.0 -0.0 4.59635 2.32693 -8.77464 -10.2438 6.06615 -64.7877 0.254958 7.19845 -0.0160372 36.2811 0.170095 4.55505 -5.5194 -29.0164 18.7301 0.0 0.0 0.0 -11.7925 17.6031 -0.837487 -35.423 -0.201548 5.34699 33.3996 12.188 -4.26709 -13.3427 0.0 0.0 -0.0 0.0 -0.0 16.2418 15.3796 -10.8819 -13.7799 -0.317872 -2.08573 28.1083 7.56779 3.79307 -32.8468 0.0 0.0 0.0 0.0 0.0 
1130.307001 725.845 -1509.32723908 11.8070961055 71.1341284765 -9.48712708751 0.03487 -0.267814 -2.55766 0.0385032 -0.104575 -2.56951 0.0449169 0.436074 -2.53442 0.0359548 0.030475 -2.57146 -17.251 5.35316 12.3987 -16.8285 3.38529 13.5402 -0.0 0.0 -0.0 4.48981 14.8136 8.98872 -8.21894 -18.7847 70.9488 1.7995 -41.7105 0.685601 -5.98542 -0.248946 0.723155 -1.3517 10.0695 -4.48876 -0.0 0.0 -0.0 4.79998 3.73113 -9.11575 -4.1693 6.64681 -65.8824 0.199972 5.65741 -0.00988063 37.6905 0.234621 4.72329 -5.76613 -29.0012 20.1723 0.0 0.0 0.0 -10.6082 14.8296 -0.220342 -38.6754 -0.384657 5.81197 31.3883 12.9841 -4.06476 -13.9192 0.0 0.0 -0.0 0.0 -0.0 15.2472 15.5103 -10.7843 -15.0603 -0.321761 -2.28214 25.5488 4.66912 3.46045 -32.9513 0.0 0.0 0.0 0.0 0.0 
1119.41132046 728.176 -1512.44786765 13.0028938572 68.9788432564 -10.5789206799 -0.146465 -0.245311 -2.36907 -0.143347 -0.094107 -2.37987 -0.137815 0.414035 -2.34549 -0.14549 0.0385223 -2.38142 -17.6298 5.533 11.5995 -17.2681 4.26272 12.8809 -0.0 0.0 -0.0 4.10477 15.7047 8.37049 -9.3442 -18.4238 71.307 1.6241 -38.8148 0.572205 -5.23657 -0.213676 0.634135 -1.29368 13.1047 -2.74006 -0.0 0.0 -0.0 5.07132 5.15868 -9.59651 0.0275906 6.91157 -66.3627 0.187547 5.30797 -0.00869355 38.4058 0.26895 4.80807 -6.00253 -29.2496 21.3508 0.0 0.0 0.0 -8.1155 13.5187 -1.29431 -41.7485 -0.58174 6.2413 30.4973 13.225 -3.97163 -15.0342 0.0 0.0 -0.0 0.0 -0.0 12.5829 15.8367 -10.2354 -13.475 -0.3163 -2.03898 24.6297 3.1861 3.33691 -32.7744 0.0 0.0 0.0 0.0 0.0 
1093.77163965 735.956 -1519.61967044 15.2241813515 68.657962233 -12.8568583892 -0.330693 -0.261199 -2.05287 -0.328358 -0.130069 -2.06532 -0.322282 0.318531 -2.04476 -0.328117 -0.00832568 -2.06939 -19.8562 5.04905 11.7008 -19.4868 3.76077 12.9289 -0.0 0.0 -0.0 3.68662 18.2832 7.74353 -11.2621 -17.8362 70.7782 1.48409 -36.3201 0.486823 -4.89909 -0.198162 0.593871 -1.10107 15.6528 -0.401175 -0.0 0.0 -0.0 5.42317 4.79082 -10.3267 4.3283 7.48666 -67.543 0.316973 8.92385 -0.0247344 39.8081 0.339319 4.97302 -5.95429 -29.2025 21.1071 0.0 0.0 0.0 -6.30458 13.1279 -3.90471 -43.3628 -0.694449 6.46251 28.8488 12.4046 -3.78537 -16.4934 0.0 0.0 -0.0 0.0 -0.0 10.2803 16.474 -9.82356 -14.2574 -0.319836 -2.15897 22.7967 5.08654 3.13909 -32.3816 0.0 0.0 0.0 0.0 0.0 
1080.43510713 744.578 -1535.58720765 17.4508546074 65.6555538707 -14.2920453496 -1.01589 -0.146238 -1.83825 -1.01401 -0.0289896 -1.84383 -1.01173 0.391192 -1.8021 -1.01625 0.101725 -1.84125 -20.4603 5.77572 11.6991 -20.1098 5.29675 13.2697 -0.0 0.0 -0.0 3.87761 20.0052 8.0473 -12.8988 -17.1043 69.1284 1.32167 -33.2117 0.394169 -4.8952 -0.197986 0.593406 -1.06434 17.4782 0.626647 -0.0 0.0 -0.0 6.25059 5.38287 -11.9924 7.21301 7.78378 -68.4851 0.335216 9.42848 -0.0276437 41.2149 0.413959 5.13674 -5.81154 -29.0134 20.4274 0.0 0.0 0.0 -4.9498 10.8763 -5.46666 -45.3957 -0.845218 6.7365 30.8486 11.7528 -3.99781 -17.5499 0.0 0.0 -0.0 0.0 -0.0 7.7209 14.5781 -10.957 -14.4233 -0.320375 -2.18441 23.1331 7.11639 3.20559 -32.6851 0.0 0.0 0.0 0.0 0.0 
1066.91487144 745.338 -1546.42902581 19.0527854569 64.8222713703 -14.991950642 -1.32665 -0.181542 -1.82615 -1.3248 -0.0649915 -1.834 -1.32119 0.363604 -1.79878 -1.3257 0.0750065 -1.83362 -20.3754 5.86588 12.0309 -20.0023 5.28616 13.6057 -0.0 0.0 -0.0 4.06893 21.0588 8.3295 -13.4649 -17.0104 68.1617 1.04365 -27.3379 0.253822 -4.19723 -0.166662 0.509847 -1.11561 20.1413 1.48453 -0.0 0.0 -0.0 6.98958 5.19015 -13.5159 9.0504 8.14985 -69.6973 0.470915 13.1312 -0.0542004 41.6225 0.436335 5.18384 -5.94968 -29.0746 21.1866 0.0 0.0 0.0 -1.38768 10.5179 -8.13122 -49.4865 -1.17774 7.27108 31.2487 11.0802 -4.03583 -18.4128 0.0 0.0 -0.0 0.0 -0.0 5.36956 16.029 -12.0012 -15.1273 -0.321844 -2.29242 26.9716 8.27258 3.676 -32.361 0.0 0.0 0.0 0.0 0.0 
1069.76216809 745.338 -1557.68355994 17.691851514 62.8073689221 -13.4756259709 -1.32665 -0.181542 -1.82615 -1.3248 -0.0649915 -1.834 -1.32119 0.363604 -1.79878 -1.3257 0.0750065 -1.83362 -20.3754 5.86588 12.0309 -20.0023 5.28616 13.6057 -0.0 0.0 -0.0 4.06893 21.0588 8.3295 -13.4649 -17.0104 68.1617 1.04365 -27.3379 0.253822 -4.19723 -0.166662 0.509847 -1.11561 20.1413 1.48453 -0.0 0.0 -0.0 6.98958 5.19015 -13.5159 9.0504 8.14985 -69.6973 0.470915 13.1312 -0.0542004 41.6225 0.436335 5.18384 -5.94968 -29.0746 21.1866 0.0 0.0 0.0 -1.38768 10.5179 -8.13122 -49.4865 -1.17774 7.27108 31.2487 11.0802 -4.03583 -18.4128 0.0 0.0 -0.0 0.0 -0.0 5.36956 16.029 -12.0012 -15.1273 -0.321844 -2.29242 26.9716 8.27258 3.676 -32.361 0.0 0.0 0.0 0.0 0.0 
1057.28793528 748.417 -1563.19653754 20.1399934827 62.4890749581 -15.6526899697 -1.64194 -0.165936 -1.61848 -1.64048 -0.0626251 -1.62576 -1.63739 0.326224 -1.59393 -1.64093 0.0704327 -1.62544 -19.4192 6.32519 10.5227 -19.1611 6.74316 12.3186 -0.0 0.0 -0.0 4.62285 20.225 9.15494 -13.7474 -16.0568 67.1167 0.751958 -20.4302 0.135505 -1.82768 -0.0679721 0.223484 -1.06272 23.4651 3.23216 -0.0 0.0 -0.0 7.89823 5.54679 -15.3927 11.1432 8.42654 -69.6332 0.632731 17.403 -0.0968393 42.2042 0.468849 5.25077 -5.03649 -28.5312 16.333 0.0 0.0 0.0 2.86422 14.9096 -12.9034 -50.6865 -1.28249 7.42333 26.5247 2.28072 -3.51488 -17.0153 0.0 0.0 -0.0 0.0 -0.0 1.44658 17.5654 -12.01 -10.2092 -0.28386 -1.53901 25.9182 8.96057 3.56584 -32.6977 0.0 0.0 0.0 0.0 0.0 
